<?xml version="1.0" standalone="no"?>
<!DOCTYPE svg PUBLIC "-//W3C//DTD SVG 20010904//EN"
 "http://www.w3.org/TR/2001/REC-SVG-20010904/DTD/svg10.dtd">
<svg version="1.0" xmlns="http://www.w3.org/2000/svg"
 width="248.000000pt" height="248.000000pt" viewBox="0 0 248.000000 248.000000"
 preserveAspectRatio="xMidYMid meet">
<metadata>
Created by potrace 1.14, written by Peter Selinger 2001-2017
</metadata>
<g transform="translate(0.000000,248.000000) scale(0.100000,-0.100000)"
fill="#000000" stroke="none">
<path d="M0 1236 l0 -936 1240 0 1240 0 0 935 0 935 -432 0 c-238 -1 -455 -5
-483 -11 -141 -26 -266 -137 -310 -274 -5 -16 -13 -6 -40 50 -52 107 -120 169
-230 211 -46 17 -89 19 -517 22 l-468 3 0 -935z m2180 -3 l0 -623 -277 -1
c-300 -1 -343 -3 -373 -19 -11 -6 -20 -8 -20 -5 0 3 -26 -8 -57 -24 -75 -38
-133 -99 -175 -183 l-34 -67 -31 67 c-47 101 -128 172 -232 206 -71 23 -87 24
-388 25 l-283 1 0 619 c0 407 3 620 10 623 6 2 426 3 935 3 l925 0 0 -622z"/>
</g>
</svg>
